# File generated by ImageToStl.com - Free Image and 3D model conversion tools

o obj1
v 71.18400574 -29.61400223 8
v 71.18400574 -29.61400223 0
v 71.68000031 -30.39200211 0
v 71.68000031 -30.39200211 8
v 72.22400665 -31.08200073 0
v 72.22400665 -31.08200073 8
v 72.80400085 -31.69000244 0
v 72.80400085 -31.69000244 8
v 73.55000305 -32.34000015 0
v 73.55000305 -32.34000015 8
v 74.43200684 -32.97000122 0
v 74.43200684 -32.97000122 8
v 75.37600708 -33.51200104 0
v 75.37600708 -33.51200104 8
v 76.23200226 -33.90200043 0
v 76.23200226 -33.90200043 8
v 76.64200592 -34.05599976 0
v 76.64200592 -34.05599976 8
v 76.79200745 -34.10600281 0
v 76.79200745 -34.10600281 8
v 85.82000732 -34.10600281 2
v 85.82000732 -34.10600281 5.99800014
v 112.90400696 -34.10600281 8
v 103.87600708 -34.10600281 8
v 103.87600708 -34.10600281 5.99800014
v 94.8480072 -34.10600281 3.99800014
v 94.8480072 -34.10600281 8
v 94.8480072 -34.10600281 0
v 103.87600708 -34.10600281 2
v 85.82000732 -34.10600281 8
v 85.82000732 -34.10600281 0
v 103.87600708 -34.10600281 0
v 112.90400696 -34.10600281 0
v 112.90400696 -25.12200165 8
v 112.90400696 -29.61400223 0
v 112.90400696 -25.12200165 0
v 112.90400696 -29.61400223 8
v 71.68000031 -28.83600044 0
v 71.68000031 -28.83600044 8
v 72.22400665 -28.14400101 8
v 72.22400665 -28.14400101 0
v 72.80400085 -27.53800201 0
v 72.80400085 -27.53800201 8
v 73.55000305 -26.88600159 0
v 73.55000305 -26.88600159 8
v 74.43200684 -26.25800133 8
v 74.43200684 -26.25800133 0
v 75.37600708 -25.71600151 0
v 75.37600708 -25.71600151 8
v 76.23200226 -25.32400131 8
v 76.23200226 -25.32400131 0
v 76.64200592 -25.17000198 0
v 76.64200592 -25.17000198 8
v 76.79200745 -25.12200165 8
v 76.79200745 -25.12200165 0
v 85.82000732 -25.12200165 2
v 85.82000732 -25.12200165 0
v 103.87600708 -25.12200165 8
v 103.87600708 -25.12200165 5.99800014
v 94.8480072 -25.12200165 8
v 94.8480072 -25.12200165 0
v 94.8480072 -25.12200165 3.99800014
v 103.87600708 -25.12200165 2
v 103.87600708 -25.12200165 0
v 85.82000732 -25.12200165 5.99800014
v 85.82000732 -25.12200165 8
v 103.87600708 -26.2460022 8
v 94.8480072 -27.36800194 8
v 103.87600708 -32.98200226 8
v 95.90400696 -28.28000069 8
v 95.90400696 -29.61400223 8
v 95.90400696 -27.68000221 8
v 106.40400696 -31.81400108 8
v 103.87600708 -30.73600197 8
v 106.76200867 -31.81400108 8
v 94.8480072 -31.86000061 8
v 85.82000732 -32.98200226 8
v 103.87600708 -28.49200058 8
v 100.30400848 -28.04600143 8
v 102.47400665 -29.61400223 8
v 84.4180069 -31.86000061 8
v 79.40600586 -27.41400146 8
v 79.25200653 -27.41400146 8
v 84.4180069 -27.36800194 8
v 81.61400604 -29.61400223 8
v 85.82000732 -26.2460022 8
v 95.90400696 -31.72800064 8
v 95.90400696 -31.81400108 8
v 95.90400696 -31.54800224 8
v 100.30400848 -31.18000221 8
v 106.40400696 -29.61400223 8
v 92.04400635 -29.61400223 8
v 85.43800354 -31.56000137 8
v 85.43800354 -31.81400108 8
v 75.00600433 -29.61400223 8
v 75.00600433 -31.81400108 8
v 110.80400848 -29.87400055 8
v 89.83600616 -31.81400108 8
v 87.98000336 -31.81400108 8
v 89.83600616 -30.94600105 8
v 89.83600616 -30.80800056 8
v 85.43800354 -29.61400223 8
v 106.40400696 -27.54800224 8
v 106.40400696 -30.42200089 8
v 110.80400848 -29.61400223 8
v 110.80400848 -29.35200119 8
v 106.40400696 -31.68000221 8
v 110.80400848 -27.41400146 8
v 109.93800354 -27.41400146 8
v 106.76200867 -27.41400146 8
v 110.80400848 -30.94600105 8
v 110.80400848 -31.81400108 8
v 107.27200317 -31.81400108 8
v 95.90400696 -27.41400146 8
v 95.90400696 -27.50000191 8
v 99.43800354 -27.41400146 8
v 100.30400848 -27.41400146 8
v 78.54000092 -27.41400146 8
v 100.30400848 -28.97600174 8
v 100.30400848 -30.94600105 8
v 100.30400848 -30.25200081 8
v 100.30400848 -29.61400223 8
v 79.40600586 -31.81400108 8
v 79.25200653 -31.81400108 8
v 79.40600586 -31.67000198 8
v 89.83600616 -30.26400185 8
v 89.83600616 -29.61400223 8
v 79.40600586 -30.94600105 8
v 79.40600586 -29.61400223 8
v 86.30400085 -31.81400108 8
v 79.40600586 -27.55800056 8
v 89.83600616 -28.9640007 8
v 85.43800354 -27.41400146 8
v 85.43800354 -27.66800117 8
v 88.97000122 -27.41400146 8
v 87.97800446 -27.41400146 8
v 89.83600616 -27.41400146 8
v 89.83600616 -28.42000198 8
v 85.43800354 -28.28000069 8
v 106.40400696 -28.80600166 8
v 75.87400055 -31.81400108 8
v 75.00600433 -28.28000069 8
v 75.00600433 -27.41400146 8
v 106.40400696 -28.28000069 8
v 106.40400696 -27.41400146 8
v 96.77200317 -31.81400108 8
v 100.30400848 -31.81400108 8
v 74.70600128 -27.11400223 0
v 79.70600128 -27.11400223 0
v 91.44800568 -26.11800194 0
v 88.69800568 -26.11800194 0
v 84.12000275 -25.62000084 0
v 95.60400391 -27.11400223 0
v 90.13800049 -27.11400223 0
v 86.19800568 -26.11800194 0
v 106.10400391 -27.11400223 0
v 98.77600098 -26.61600113 0
v 93.94800568 -26.11800194 0
v 100.60400391 -27.11400223 0
v 106.10400391 -29.61400223 0
v 106.10400391 -32.11400223 0
v 100.60400391 -29.61400223 0
v 111.10400391 -27.11400223 0
v 102.52600861 -26.61600113 0
v 98.77600098 -32.61200333 0
v 100.60400391 -32.11400223 0
v 85.37000275 -25.62000084 0
v 111.10400391 -29.61400223 0
v 85.13600159 -27.11400223 0
v 91.44800568 -33.11000061 0
v 85.37000275 -33.60800171 0
v 84.12000275 -33.60800171 0
v 102.97600555 -33.11000061 0
v 79.70600128 -29.61400223 0
v 88.69800568 -33.11000061 0
v 95.60400391 -32.11400223 0
v 93.94800568 -33.11000061 0
v 111.10400391 -32.11400223 0
v 86.19800568 -33.11000061 0
v 90.13800049 -32.11400223 0
v 85.13600159 -29.61400223 0
v 85.13600159 -32.11400223 0
v 79.70600128 -32.11400223 0
v 95.60400391 -29.61400223 0
v 90.13800049 -29.61400223 0
v 102.52600861 -32.61200333 0
v 74.70600128 -32.11400223 0
v 74.70600128 -29.61400223 0
v 102.97600555 -26.11800194 0
v 79.70600128 -27.11400223 5.39400005
v 111.10400391 -27.11400223 5.39400005
v 74.70600128 -27.11400223 5.39400005
v 100.60400391 -27.11400223 5.39400005
v 95.60400391 -27.11400223 5.39400005
v 106.10400391 -27.11400223 5.39400005
v 90.13800049 -27.11400223 5.39400005
v 85.13600159 -27.11400223 5.39400005
v 79.70600128 -29.61400223 5.39400005
v 79.70600128 -32.11400223 5.39400005
v 100.60400391 -32.11400223 5.39400005
v 95.60400391 -32.11400223 5.39400005
v 85.13600159 -32.11400223 5.39400005
v 90.13800049 -32.11400223 5.39400005
v 111.10400391 -32.11400223 5.39400005
v 106.10400391 -32.11400223 5.39400005
v 74.70600128 -32.11400223 5.39400005
v 74.70600128 -29.61400223 5.39400005
v 106.10400391 -29.61400223 5.39400005
v 111.10400391 -29.61400223 5.39400005
v 95.60400391 -29.61400223 5.39400005
v 100.60400391 -29.61400223 5.39400005
v 90.13800049 -29.61400223 5.39400005
v 85.13600159 -29.61400223 5.39400005
v 110.80400848 -27.41400146 13.62000084
v 106.40400696 -27.41400146 13.62000084
v 100.30400848 -27.41400146 13.62000084
v 95.90400696 -27.41400146 13.62000084
v 79.40600586 -27.41400146 13.62000084
v 75.00600433 -27.41400146 13.62000084
v 85.43800354 -27.41400146 13.62000084
v 89.83600616 -27.41400146 13.62000084
v 79.40600586 -31.81400108 13.62000084
v 110.80400848 -31.81400108 13.62000084
v 106.40400696 -31.81400108 13.62000084
v 100.30400848 -31.81400108 13.62000084
v 95.90400696 -31.81400108 13.62000084
v 75.00600433 -31.81400108 13.62000084
v 85.43800354 -31.81400108 13.62000084
v 89.83600616 -31.81400108 13.62000084
vn -0.84322 -0.53757 -0
vn -0.78529 -0.61913 -0
vn -0.72358 -0.69024 -0
vn -0.65693 -0.75395 0
vn -0.58124 -0.81373 0
vn -0.49792 -0.86722 0
vn -0.41461 -0.91 0
vn -0.35162 -0.93614 0
vn -0.31624 -0.94868 0
vn 0 -1 0
vn 0 -1 0
vn 1 0 0
vn -0.84322 0.53757 0
vn -0.78616 0.61803 0
vn -0.72244 0.69144 0
vn -0.65807 0.75295 0
vn -0.58001 0.81461 0
vn -0.49792 0.86722 0
vn -0.41636 0.9092 0
vn -0.35162 0.93614 0
vn -0.30477 0.95242 0
vn 0 1 0
vn 0 1 0
vn 0 0 1
vn 0 0 1
vn 0 0 -1
vn 0 0 -1
vn -1 0 -0
vn 1 0 0
vn -1 0 0
f 1//1 2//1 3//1
f 3//1 4//1 1//1
f 4//2 3//2 5//2
f 5//2 6//2 4//2
f 6//3 5//3 7//3
f 7//3 8//3 6//3
f 7//4 9//4 8//4
f 10//4 8//4 9//4
f 9//5 11//5 10//5
f 12//5 10//5 11//5
f 11//6 13//6 12//6
f 14//6 12//6 13//6
f 13//7 15//7 14//7
f 16//7 14//7 15//7
f 15//8 17//8 16//8
f 18//8 16//8 17//8
f 17//9 19//9 18//9
f 20//9 18//9 19//9
f 19//10 21//10 22//10
f 23//10 24//10 25//10
f 26//11 25//11 27//11
f 28//10 29//10 26//10
f 30//10 20//10 22//10
f 31//10 28//10 21//10
f 24//10 27//10 25//10
f 28//10 32//10 29//10
f 27//11 22//11 26//11
f 19//10 22//10 20//10
f 27//10 30//10 22//10
f 19//10 31//10 21//10
f 25//10 26//10 29//10
f 25//10 29//10 33//10
f 21//10 26//10 22//10
f 32//10 33//10 29//10
f 26//10 21//10 28//10
f 23//10 25//10 33//10
f 34//12 35//12 36//12
f 33//12 35//12 23//12
f 35//12 34//12 37//12
f 37//12 23//12 35//12
f 2//13 1//13 38//13
f 39//13 38//13 1//13
f 40//14 41//14 39//14
f 38//14 39//14 41//14
f 41//15 40//15 42//15
f 43//15 42//15 40//15
f 42//16 43//16 44//16
f 45//16 44//16 43//16
f 46//17 47//17 45//17
f 44//17 45//17 47//17
f 47//18 46//18 48//18
f 49//18 48//18 46//18
f 50//19 51//19 49//19
f 48//19 49//19 51//19
f 51//20 50//20 52//20
f 53//20 52//20 50//20
f 54//21 55//21 53//21
f 52//21 53//21 55//21
f 55//22 56//22 57//22
f 58//22 59//22 60//22
f 57//22 56//22 61//22
f 34//22 36//22 59//22
f 62//22 61//22 56//22
f 34//22 59//22 58//22
f 59//22 36//22 63//22
f 64//22 63//22 36//22
f 61//22 63//22 64//22
f 60//22 65//22 66//22
f 62//23 60//23 59//23
f 55//22 65//22 56//22
f 55//22 54//22 65//22
f 59//22 63//22 62//22
f 66//22 65//22 54//22
f 61//22 62//22 63//22
f 60//23 62//23 65//23
f 56//22 65//22 62//22
f 58//24 60//24 67//24
f 68//24 67//24 60//24
f 24//24 23//24 69//24
f 70//24 68//24 71//24
f 72//24 68//24 70//24
f 10//24 1//24 8//24
f 69//24 73//24 74//24
f 69//24 75//24 73//24
f 69//24 23//24 75//24
f 27//25 69//25 76//25
f 67//24 34//24 58//24
f 30//24 27//24 77//24
f 78//24 79//24 80//24
f 50//24 54//24 53//24
f 49//24 54//24 50//24
f 69//24 27//24 24//24
f 20//24 77//24 81//24
f 82//24 54//24 83//24
f 84//24 82//24 85//24
f 84//24 54//24 82//24
f 20//24 1//24 14//24
f 86//24 54//24 84//24
f 77//24 20//24 30//24
f 87//24 76//24 88//24
f 86//24 60//24 66//24
f 89//24 76//24 87//24
f 66//24 54//24 86//24
f 74//24 90//24 69//24
f 60//24 86//24 68//24
f 80//24 91//24 78//24
f 89//24 92//24 76//24
f 71//24 92//24 89//24
f 20//24 16//24 18//24
f 12//24 1//24 10//24
f 93//24 81//24 94//24
f 14//24 1//24 12//24
f 76//25 77//25 27//25
f 1//25 43//25 40//25
f 1//24 40//24 39//24
f 8//24 1//24 6//24
f 6//24 1//24 4//24
f 1//24 49//24 46//24
f 95//24 1//24 96//24
f 37//24 97//24 23//24
f 20//25 14//25 16//25
f 1//25 54//25 49//25
f 77//24 98//24 99//24
f 100//24 92//24 101//24
f 98//25 92//25 100//25
f 98//25 76//25 92//25
f 77//24 76//24 98//24
f 93//24 85//24 81//24
f 102//25 85//25 93//25
f 1//24 45//24 43//24
f 1//24 46//24 45//24
f 78//24 103//24 67//24
f 104//25 80//25 74//25
f 91//24 80//24 104//24
f 97//24 37//24 105//24
f 105//24 37//24 106//24
f 104//24 74//24 107//24
f 34//24 108//24 37//24
f 34//24 109//24 108//24
f 34//24 110//24 109//24
f 111//24 23//24 97//24
f 112//24 23//24 111//24
f 113//24 23//24 112//24
f 75//24 23//24 113//24
f 106//24 37//24 108//24
f 107//24 74//24 73//24
f 114//24 68//24 115//24
f 116//24 68//24 114//24
f 117//24 68//24 116//24
f 67//24 117//24 78//24
f 67//25 68//25 117//25
f 115//24 68//24 72//24
f 83//24 54//24 118//24
f 119//24 80//24 79//24
f 120//24 80//24 121//24
f 90//24 80//24 120//24
f 90//24 74//24 80//24
f 79//24 78//24 117//24
f 122//25 80//25 119//25
f 20//24 123//24 124//24
f 123//24 85//24 125//24
f 123//25 81//25 85//25
f 20//24 81//24 123//24
f 121//24 80//24 122//24
f 126//24 92//24 127//24
f 128//25 85//25 129//25
f 125//24 85//24 128//24
f 130//24 94//24 77//24
f 101//24 92//24 126//24
f 129//24 85//24 131//24
f 85//24 102//24 84//24
f 127//24 92//24 132//24
f 133//24 84//24 134//24
f 86//24 84//24 133//24
f 135//24 86//24 136//24
f 137//24 86//24 135//24
f 68//24 137//24 92//24
f 68//24 86//24 137//24
f 132//24 92//24 138//24
f 138//24 92//24 137//24
f 139//24 84//24 102//24
f 134//24 84//24 139//24
f 131//24 85//24 82//24
f 140//24 78//24 91//24
f 124//25 141//25 20//25
f 142//24 1//24 95//24
f 143//24 1//24 142//24
f 54//24 1//24 143//24
f 92//24 71//24 68//24
f 144//24 78//24 140//24
f 103//24 78//24 144//24
f 145//24 67//24 103//24
f 110//24 67//24 145//24
f 34//24 67//24 110//24
f 76//24 146//24 88//24
f 76//24 147//24 146//24
f 147//24 69//24 90//24
f 76//24 69//24 147//24
f 81//24 77//24 94//24
f 96//24 20//24 141//24
f 1//24 20//24 96//24
f 133//24 136//24 86//24
f 77//24 99//24 130//24
f 143//24 118//24 54//24
f 148//26 55//26 149//26
f 2//27 48//27 55//27
f 150//26 151//26 152//26
f 48//26 51//26 55//26
f 55//26 148//26 2//26
f 153//26 154//26 155//26
f 51//26 52//26 55//26
f 2//26 42//26 44//26
f 2//27 41//27 42//27
f 2//26 44//26 47//26
f 2//26 47//26 48//26
f 156//26 157//26 158//26
f 150//26 157//26 159//26
f 160//27 161//27 162//27
f 156//26 159//26 157//26
f 36//26 163//26 64//26
f 163//26 156//26 164//26
f 36//26 35//26 163//26
f 165//26 166//26 161//26
f 57//26 167//26 55//26
f 35//26 33//26 168//26
f 158//26 150//26 167//26
f 169//26 149//26 55//26
f 170//26 171//26 172//26
f 168//26 163//26 35//26
f 28//26 173//26 32//26
f 154//26 169//26 55//26
f 174//26 149//26 169//26
f 155//26 151//26 153//26
f 175//26 176//26 166//26
f 165//26 177//26 170//26
f 150//26 158//26 157//26
f 61//26 158//26 57//26
f 166//26 165//26 170//26
f 178//26 32//26 173//26
f 151//26 155//26 55//26
f 179//26 180//26 176//26
f 158//26 61//26 164//26
f 152//26 167//26 150//26
f 172//26 175//26 170//26
f 55//26 155//26 154//26
f 181//26 182//26 174//26
f 19//26 183//26 182//26
f 2//26 38//26 41//26
f 166//26 170//26 175//26
f 184//26 176//26 185//26
f 176//26 175//26 179//26
f 151//26 150//26 159//26
f 159//26 153//26 151//26
f 19//27 15//27 13//27
f 183//26 174//26 182//26
f 166//27 162//27 161//27
f 19//26 171//26 31//26
f 32//26 178//26 33//26
f 19//26 179//26 175//26
f 153//26 184//26 154//26
f 161//26 186//26 177//26
f 156//27 160//27 159//27
f 2//27 187//27 19//27
f 178//26 168//26 33//26
f 148//26 188//26 2//26
f 178//26 173//26 186//26
f 188//26 187//26 2//26
f 9//26 7//26 2//26
f 11//26 9//26 2//26
f 7//26 5//26 2//26
f 5//26 3//26 2//26
f 19//26 13//26 2//26
f 180//26 185//26 176//26
f 13//26 11//26 2//26
f 19//26 172//26 171//26
f 164//26 189//26 163//26
f 185//26 154//26 184//26
f 162//27 159//27 160//27
f 169//26 181//26 174//26
f 19//27 182//27 180//27
f 19//26 17//26 15//26
f 183//26 19//26 187//26
f 175//26 172//26 19//26
f 180//27 179//27 19//27
f 171//26 170//26 177//26
f 177//26 31//26 171//26
f 189//26 164//26 61//26
f 28//26 186//26 173//26
f 186//26 28//26 177//26
f 167//26 57//26 158//26
f 177//26 165//26 161//26
f 186//26 161//26 178//26
f 55//26 152//26 151//26
f 158//27 164//27 156//27
f 167//26 152//26 55//26
f 189//26 64//26 163//26
f 31//26 177//26 28//26
f 64//26 189//26 61//26
f 148//11 149//11 190//11
f 156//11 163//11 191//11
f 190//11 192//11 148//11
f 153//11 159//11 193//11
f 193//11 194//11 153//11
f 191//11 195//11 156//11
f 169//10 154//10 196//10
f 196//10 197//10 169//10
f 198//28 174//28 183//28
f 174//28 198//28 190//28
f 190//28 149//28 174//28
f 183//28 199//28 198//28
f 200//23 166//23 201//23
f 182//22 202//22 180//22
f 203//22 180//22 202//22
f 204//23 178//23 205//23
f 199//23 183//23 206//23
f 176//23 201//23 166//23
f 187//23 206//23 183//23
f 161//23 205//23 178//23
f 188//29 148//29 207//29
f 192//29 207//29 148//29
f 187//29 188//29 206//29
f 207//29 206//29 188//29
f 205//26 208//26 204//26
f 209//26 204//26 208//26
f 210//26 194//26 211//26
f 191//26 209//26 195//26
f 206//26 207//26 199//26
f 198//26 199//26 207//26
f 208//26 195//26 209//26
f 196//27 212//27 197//27
f 212//27 203//27 213//27
f 202//27 213//27 203//27
f 213//27 197//27 212//27
f 193//26 211//26 194//26
f 211//26 200//26 210//26
f 201//26 210//26 200//26
f 207//26 192//26 198//26
f 190//26 198//26 192//26
f 209//28 168//28 178//28
f 178//28 204//28 209//28
f 168//28 209//28 191//28
f 191//28 163//28 168//28
f 161//29 160//29 205//29
f 208//29 205//29 160//29
f 195//29 208//29 156//29
f 160//29 156//29 208//29
f 211//28 162//28 166//28
f 166//28 200//28 211//28
f 162//28 211//28 193//28
f 193//28 159//28 162//28
f 176//29 184//29 201//29
f 210//29 201//29 184//29
f 194//29 210//29 153//29
f 184//29 153//29 210//29
f 185//28 212//28 196//28
f 196//28 154//28 185//28
f 212//28 185//28 180//28
f 180//28 203//28 212//28
f 182//29 181//29 202//29
f 213//29 202//29 181//29
f 197//29 213//29 169//29
f 181//29 169//29 213//29
f 214//22 108//22 215//22
f 216//22 117//22 217//22
f 110//22 215//22 109//22
f 145//22 215//22 110//22
f 218//22 82//22 219//22
f 109//22 215//22 108//22
f 116//22 217//22 117//22
f 114//22 217//22 116//22
f 136//23 220//23 135//23
f 133//22 220//22 136//22
f 135//22 220//22 137//22
f 143//22 219//22 118//22
f 83//22 219//22 82//22
f 118//22 219//22 83//22
f 221//22 137//22 220//22
f 218//12 131//12 82//12
f 218//12 129//12 131//12
f 218//12 128//12 129//12
f 128//12 222//12 125//12
f 218//12 222//12 128//12
f 123//12 125//12 222//12
f 223//10 224//10 113//10
f 225//10 226//10 146//10
f 222//10 227//10 141//10
f 113//10 112//10 223//10
f 75//10 113//10 224//10
f 73//10 75//10 224//10
f 88//10 146//10 226//10
f 146//10 147//10 225//10
f 94//10 130//10 228//10
f 99//11 98//11 229//11
f 130//10 99//10 229//10
f 96//10 141//10 227//10
f 124//10 123//10 222//10
f 141//10 124//10 222//10
f 229//10 228//10 130//10
f 142//30 95//30 227//30
f 143//30 142//30 227//30
f 219//30 143//30 227//30
f 96//30 227//30 95//30
f 214//24 224//24 223//24
f 218//24 227//24 222//24
f 227//24 218//24 219//24
f 224//24 214//24 215//24
f 216//24 226//24 225//24
f 226//24 216//24 217//24
f 221//24 228//24 229//24
f 228//24 221//24 220//24
f 214//12 106//12 108//12
f 214//12 105//12 106//12
f 214//12 97//12 105//12
f 214//12 111//12 97//12
f 214//12 223//12 111//12
f 112//12 111//12 223//12
f 73//30 224//30 107//30
f 104//30 107//30 224//30
f 91//30 104//30 224//30
f 140//30 91//30 224//30
f 144//30 140//30 224//30
f 103//30 144//30 224//30
f 145//30 103//30 224//30
f 215//30 145//30 224//30
f 120//12 225//12 90//12
f 216//12 225//12 120//12
f 147//29 90//29 225//29
f 216//29 79//29 117//29
f 216//12 119//12 79//12
f 216//12 122//12 119//12
f 216//12 121//12 122//12
f 216//12 120//12 121//12
f 88//30 226//30 87//30
f 89//30 87//30 226//30
f 71//30 89//30 226//30
f 70//30 71//30 226//30
f 72//30 70//30 226//30
f 115//30 72//30 226//30
f 114//30 115//30 226//30
f 217//30 114//30 226//30
f 221//12 138//12 137//12
f 221//12 132//12 138//12
f 221//12 127//12 132//12
f 221//29 126//29 127//29
f 221//29 101//29 126//29
f 221//12 100//12 101//12
f 221//12 229//12 100//12
f 98//12 100//12 229//12
f 102//28 93//28 228//28
f 139//30 102//30 228//30
f 134//30 139//30 228//30
f 133//28 134//28 228//28
f 220//30 133//30 228//30
f 94//28 228//28 93//28
# Vertices: 229, normals: 30, texture coordinates: 0, faces: 454

