# File generated by ImageToStl.com - Free Image and 3D model conversion tools

o obj1
v 60.66800308 -40.58400345 8
v 60.66800308 -40.58400345 0
v 61.16400146 -41.36200333 0
v 61.16400146 -41.36200333 8
v 61.708004 -42.05400085 0
v 61.708004 -42.05400085 8
v 62.28800201 -42.66200256 0
v 62.28800201 -42.66200256 8
v 63.0320015 -43.31200027 0
v 63.0320015 -43.31200027 8
v 63.91600418 -43.94000244 0
v 63.91600418 -43.94000244 8
v 64.86000061 -44.48200226 0
v 64.86000061 -44.48200226 8
v 65.71600342 -44.87400055 0
v 65.71600342 -44.87400055 8
v 66.12599945 -45.02800369 0
v 66.12599945 -45.02800369 8
v 66.27600098 -45.07600403 0
v 66.27600098 -45.07600403 8
v 112.90400696 -45.07600403 8
v 101.2460022 -45.07600403 8
v 101.2460022 -45.07600403 5.99800014
v 77.93400574 -45.07600403 2
v 89.59000397 -45.07600403 3.99800014
v 77.93400574 -45.07600403 5.99800014
v 89.59000397 -45.07600403 8
v 77.93400574 -45.07600403 0
v 89.59000397 -45.07600403 0
v 101.2460022 -45.07600403 0
v 101.2460022 -45.07600403 2
v 112.90400696 -45.07600403 0
v 77.93400574 -45.07600403 8
v 112.90400696 -40.58400345 0
v 112.90400696 -36.09400177 8
v 112.90400696 -36.09400177 0
v 112.90400696 -40.58400345 8
v 61.16400146 -39.80600357 0
v 61.16400146 -39.80600357 8
v 61.708004 -39.11600113 0
v 61.708004 -39.11600113 8
v 62.28800201 -38.50800323 0
v 62.28800201 -38.50800323 8
v 63.0320015 -37.85800171 0
v 63.0320015 -37.85800171 8
v 63.91600418 -37.22800064 0
v 63.91600418 -37.22800064 8
v 64.86000061 -36.68800354 0
v 64.86000061 -36.68800354 8
v 65.71600342 -36.29600143 8
v 65.71600342 -36.29600143 0
v 66.12599945 -36.14200211 0
v 66.12599945 -36.14200211 8
v 66.27600098 -36.09400177 0
v 66.27600098 -36.09400177 8
v 77.93400574 -36.09400177 2
v 77.93400574 -36.09400177 0
v 77.93400574 -36.09400177 8
v 77.93400574 -36.09400177 5.99800014
v 89.59000397 -36.09400177 0
v 89.59000397 -36.09400177 3.99800014
v 89.59000397 -36.09400177 8
v 101.2460022 -36.09400177 5.99800014
v 101.2460022 -36.09400177 8
v 101.2460022 -36.09400177 0
v 101.2460022 -36.09400177 2
v 75.00600433 -39.56000137 8
v 73.72600555 -40.58400345 8
v 75.00600433 -40.58400345 8
v 101.2460022 -37.21600342 8
v 77.93400574 -37.21600342 8
v 76.53200531 -42.83000183 8
v 77.93400574 -43.95200348 8
v 76.74000549 -42.7840004 8
v 89.59000397 -38.34000015 8
v 75.00600433 -39.25200272 8
v 75.00600433 -38.38400269 8
v 76.47400665 -38.38400269 8
v 76.53200531 -38.34000015 8
v 101.2460022 -43.95200348 8
v 89.59000397 -42.83000183 8
v 89.83800507 -38.38400269 8
v 89.79800415 -38.38400269 8
v 95.90400696 -39.25200272 8
v 95.90400696 -39.72200012 8
v 95.90400696 -38.94800186 8
v 75.00600433 -42.7840004 8
v 75.87400055 -42.7840004 8
v 76.47400665 -42.7840004 8
v 89.83800507 -41.91800308 8
v 95.90400696 -41.44800186 8
v 89.83800507 -40.58400345 8
v 89.83800507 -42.77600098 8
v 101.2460022 -39.4620018 8
v 106.40400696 -42.4620018 8
v 106.40400696 -42.7840004 8
v 100.30400848 -40.58400345 8
v 100.30400848 -40.21600342 8
v 106.40400696 -40.58400345 8
v 79.40600586 -40.58400345 8
v 85.43800354 -40.58400345 8
v 79.40600586 -38.96800232 8
v 106.40400696 -39.95800018 8
v 106.40400696 -39.25200272 8
v 106.40400696 -38.38400269 8
v 110.80400848 -38.38400269 8
v 109.93800354 -38.38400269 8
v 75.00600433 -41.61000061 8
v 76.73800659 -38.38400269 8
v 110.80400848 -40.58400345 8
v 110.80400848 -40.38200378 8
v 101.2460022 -41.70800018 8
v 110.80400848 -41.19000244 8
v 110.80400848 -40.78600311 8
v 85.43800354 -39.25200272 8
v 85.43800354 -40.07200241 8
v 85.43800354 -38.38400269 8
v 88.97000122 -38.38400269 8
v 89.53400421 -38.38400269 8
v 100.30400848 -41.79800034 8
v 100.30400848 -40.95400238 8
v 100.30400848 -39.37000275 8
v 100.30400848 -38.38400269 8
v 95.90400696 -42.22200012 8
v 95.90400696 -42.7840004 8
v 85.43800354 -40.29000092 8
v 79.40600586 -38.38400269 8
v 89.80000305 -42.7840004 8
v 89.53200531 -42.7840004 8
v 85.43800354 -40.88000107 8
v 95.90400696 -38.38400269 8
v 99.43800354 -38.38400269 8
v 78.54000092 -38.38400269 8
v 95.90400696 -40.58400345 8
v 89.83800507 -38.39400101 8
v 79.40600586 -41.91800308 8
v 79.40600586 -42.20000076 8
v 85.43800354 -41.09800339 8
v 85.43800354 -42.7840004 8
v 106.40400696 -41.2100029 8
v 68.99000549 -38.38400269 8
v 68.12200165 -38.38400269 8
v 79.40600586 -42.7840004 8
v 68.99000549 -40.58400345 8
v 68.99000549 -42.7840004 8
v 65.45800018 -42.7840004 8
v 64.59000397 -40.58400345 8
v 64.59000397 -42.7840004 8
v 64.59000397 -39.25200272 8
v 64.59000397 -38.38400269 8
v 89.83800507 -42.7840004 8
v 107.27200317 -42.7840004 8
v 110.80400848 -42.7840004 8
v 110.80400848 -41.91800308 8
v 96.77200317 -42.7840004 8
v 100.30400848 -42.7840004 8
v 100.30400848 -41.91800308 8
v 86.30400085 -42.7840004 8
v 68.99000549 -41.91800308 8
v 86.19000244 -44.08000183 0
v 64.29000092 -38.08400345 0
v 75.70600128 -37.08800125 0
v 79.70600128 -38.08400345 0
v 95.60400391 -38.08400345 0
v 90.13800049 -38.08400345 0
v 80.94000244 -37.08800125 0
v 85.13600159 -38.08400345 0
v 78.20600128 -37.08800125 0
v 106.10400391 -38.08400345 0
v 100.60400391 -43.08400345 0
v 96.14800262 -43.58200073 0
v 74.70600128 -40.58400345 0
v 69.29000092 -38.08400345 0
v 86.19000244 -37.08800125 0
v 96.14800262 -37.58600235 0
v 74.70600128 -43.08400345 0
v 69.29000092 -40.58400345 0
v 76.23400116 -44.57800293 0
v 74.70600128 -38.08400345 0
v 83.44000244 -44.08000183 0
v 74.85800171 -44.57800293 0
v 111.10400391 -38.08400345 0
v 111.10400391 -43.08400345 0
v 111.10400391 -40.58400345 0
v 80.94000244 -44.08000183 0
v 76.23400116 -36.59200287 0
v 100.60400391 -38.08400345 0
v 106.10400391 -43.08400345 0
v 92.02200317 -43.58200073 0
v 95.60400391 -43.08400345 0
v 75.70600128 -44.08000183 0
v 79.70600128 -43.08400345 0
v 85.13600159 -43.08400345 0
v 95.60400391 -40.58400345 0
v 90.13800049 -40.58400345 0
v 64.29000092 -40.58400345 0
v 64.29000092 -43.08400345 0
v 69.29000092 -43.08400345 0
v 100.60400391 -40.58400345 0
v 90.13800049 -43.08400345 0
v 106.10400391 -40.58400345 0
v 79.70600128 -40.58400345 0
v 85.13600159 -40.58400345 0
v 69.29000092 -38.08400345 5.39400005
v 64.29000092 -38.08400345 5.39400005
v 111.10400391 -38.08400345 5.39400005
v 106.10400391 -38.08400345 5.39400005
v 100.60400391 -38.08400345 5.39400005
v 95.60400391 -38.08400345 5.39400005
v 79.70600128 -38.08400345 5.39400005
v 74.70600128 -38.08400345 5.39400005
v 90.13800049 -38.08400345 5.39400005
v 85.13600159 -38.08400345 5.39400005
v 69.29000092 -40.58400345 5.39400005
v 69.29000092 -43.08400345 5.39400005
v 79.70600128 -43.08400345 5.39400005
v 74.70600128 -43.08400345 5.39400005
v 106.10400391 -43.08400345 5.39400005
v 85.13600159 -43.08400345 5.39400005
v 111.10400391 -43.08400345 5.39400005
v 64.29000092 -43.08400345 5.39400005
v 95.60400391 -43.08400345 5.39400005
v 100.60400391 -43.08400345 5.39400005
v 90.13800049 -43.08400345 5.39400005
v 64.29000092 -40.58400345 5.39400005
v 106.10400391 -40.58400345 5.39400005
v 111.10400391 -40.58400345 5.39400005
v 85.13600159 -40.58400345 5.39400005
v 90.13800049 -40.58400345 5.39400005
v 95.60400391 -40.58400345 5.39400005
v 100.60400391 -40.58400345 5.39400005
v 74.70600128 -40.58400345 5.39400005
v 79.70600128 -40.58400345 5.39400005
v 79.40600586 -38.38400269 13.62000084
v 75.00600433 -38.38400269 13.62000084
v 100.30400848 -38.38400269 13.62000084
v 95.90400696 -38.38400269 13.62000084
v 110.80400848 -38.38400269 13.62000084
v 106.40400696 -38.38400269 13.62000084
v 68.99000549 -38.38400269 13.62000084
v 64.59000397 -38.38400269 13.62000084
v 89.83800507 -38.38400269 13.62000084
v 85.43800354 -38.38400269 13.62000084
v 68.99000549 -42.7840004 13.62000084
v 89.83800507 -42.7840004 13.62000084
v 85.43800354 -42.7840004 13.62000084
v 64.59000397 -42.7840004 13.62000084
v 79.40600586 -42.7840004 13.62000084
v 75.00600433 -42.7840004 13.62000084
v 106.40400696 -42.7840004 13.62000084
v 110.80400848 -42.7840004 13.62000084
v 95.90400696 -42.7840004 13.62000084
v 100.30400848 -42.7840004 13.62000084
vn -0.84322 -0.53758 -0
vn -0.78616 -0.61803 -0
vn -0.72357 -0.69025 -0
vn -0.65793 -0.75308 0
vn -0.57914 -0.81523 0
vn -0.49792 -0.86722 0
vn -0.41636 -0.9092 0
vn -0.35163 -0.93614 0
vn -0.30477 -0.95242 0
vn -0 -1 0
vn 0 -1 0
vn 1 0 0
vn -0.84322 0.53758 0
vn -0.78529 0.61913 0
vn -0.72357 0.69025 0
vn -0.65793 0.75308 0
vn -0.58037 0.81436 0
vn -0.49653 0.86802 0
vn -0.41636 0.9092 0
vn -0.35163 0.93614 0
vn -0.30477 0.95242 0
vn 0 1 0
vn 0 1 0
vn 0 0 1
vn 0 0 1
vn 0 0 -1
vn 0 0 -1
vn -1 0 -0
vn 1 0 0
vn -1 0 0
f 1//1 2//1 3//1
f 3//1 4//1 1//1
f 4//2 3//2 5//2
f 5//2 6//2 4//2
f 6//3 5//3 7//3
f 7//3 8//3 6//3
f 7//4 9//4 8//4
f 10//4 8//4 9//4
f 9//5 11//5 10//5
f 12//5 10//5 11//5
f 11//6 13//6 12//6
f 14//6 12//6 13//6
f 13//7 15//7 14//7
f 16//7 14//7 15//7
f 15//8 17//8 16//8
f 18//8 16//8 17//8
f 17//9 19//9 18//9
f 20//9 18//9 19//9
f 21//10 22//10 23//10
f 24//10 25//10 26//10
f 27//10 26//10 25//10
f 25//10 23//10 27//10
f 19//11 26//11 20//11
f 22//10 27//10 23//10
f 19//11 28//11 24//11
f 29//11 30//11 31//11
f 29//10 31//10 25//10
f 23//10 25//10 31//10
f 28//11 29//11 24//11
f 23//10 31//10 32//10
f 25//10 24//10 29//10
f 27//10 33//10 26//10
f 33//10 20//10 26//10
f 30//11 32//11 31//11
f 19//10 24//10 26//10
f 21//11 23//11 32//11
f 32//12 34//12 21//12
f 35//12 34//12 36//12
f 34//12 35//12 37//12
f 37//12 21//12 34//12
f 2//13 1//13 38//13
f 39//13 38//13 1//13
f 38//14 39//14 40//14
f 41//14 40//14 39//14
f 40//15 41//15 42//15
f 43//15 42//15 41//15
f 42//16 43//16 44//16
f 45//16 44//16 43//16
f 44//17 45//17 46//17
f 47//17 46//17 45//17
f 46//18 47//18 48//18
f 49//18 48//18 47//18
f 50//19 51//19 49//19
f 48//19 49//19 51//19
f 51//20 50//20 52//20
f 53//20 52//20 50//20
f 52//21 53//21 54//21
f 55//21 54//21 53//21
f 54//22 56//22 57//22
f 58//23 59//23 55//23
f 57//22 56//22 60//22
f 61//23 60//23 56//23
f 61//23 62//23 63//23
f 35//23 63//23 64//23
f 65//22 66//22 36//22
f 35//22 36//22 63//22
f 64//23 63//23 62//23
f 63//23 36//23 66//23
f 54//22 55//22 59//22
f 54//23 59//23 56//23
f 62//23 59//23 58//23
f 56//23 59//23 61//23
f 60//22 66//22 65//22
f 60//23 61//23 66//23
f 63//23 66//23 61//23
f 62//23 61//23 59//23
f 67//24 68//24 69//24
f 64//25 62//25 70//25
f 58//24 55//24 71//24
f 72//24 73//24 74//24
f 75//24 70//24 62//24
f 67//24 55//24 68//24
f 76//24 55//24 67//24
f 77//25 55//25 76//25
f 78//24 55//24 77//24
f 79//24 55//24 78//24
f 20//24 16//24 18//24
f 22//24 21//24 80//24
f 33//24 27//24 73//24
f 27//24 80//24 81//24
f 14//24 1//24 12//24
f 81//24 73//24 27//24
f 82//24 75//24 83//24
f 84//25 82//25 85//25
f 84//24 75//24 82//24
f 86//24 75//24 84//24
f 20//24 87//24 68//24
f 20//24 88//24 87//24
f 20//24 89//24 88//24
f 20//24 72//24 89//24
f 71//25 62//25 58//25
f 90//24 91//24 92//24
f 93//24 91//24 90//24
f 8//24 1//24 6//24
f 73//24 20//24 33//24
f 94//24 35//24 70//24
f 95//24 80//24 96//24
f 97//25 94//25 98//25
f 97//24 99//24 94//24
f 12//25 1//25 10//25
f 62//24 71//24 75//24
f 20//25 73//25 72//25
f 1//24 55//24 49//24
f 80//24 27//24 22//24
f 100//24 101//24 102//24
f 103//25 94//25 99//25
f 70//24 35//24 64//24
f 104//24 94//24 103//24
f 105//24 94//24 104//24
f 35//24 106//24 37//24
f 35//25 107//25 106//25
f 35//24 105//24 107//24
f 35//24 94//24 105//24
f 1//24 43//24 41//24
f 1//24 41//24 39//24
f 20//24 14//24 16//24
f 6//24 1//24 4//24
f 1//25 49//25 47//25
f 1//24 45//24 43//24
f 1//24 47//24 45//24
f 20//24 1//24 14//24
f 10//24 1//24 8//24
f 108//24 68//24 87//24
f 71//24 79//24 109//24
f 49//24 55//24 50//24
f 110//24 37//24 111//24
f 71//24 55//24 79//24
f 50//24 55//24 53//24
f 80//24 95//24 112//24
f 113//24 37//24 114//24
f 111//24 37//24 106//24
f 115//24 71//24 116//24
f 117//24 71//24 115//24
f 118//24 71//24 117//24
f 119//24 71//24 118//24
f 75//24 71//24 119//24
f 120//24 112//24 121//24
f 114//24 37//24 110//24
f 122//24 94//24 123//24
f 124//24 81//24 125//24
f 98//25 94//25 122//25
f 102//24 126//24 127//24
f 121//24 112//24 97//24
f 128//24 129//24 81//24
f 101//25 100//25 130//25
f 131//24 75//24 86//24
f 132//24 75//24 131//24
f 123//24 75//24 132//24
f 70//24 123//24 94//24
f 70//24 75//24 123//24
f 127//24 71//24 133//24
f 126//24 71//24 127//24
f 116//24 71//24 126//24
f 91//24 93//24 124//24
f 134//24 92//24 91//24
f 119//24 83//24 75//24
f 85//24 135//24 134//24
f 92//24 134//24 135//24
f 78//24 109//24 79//24
f 136//24 130//24 100//24
f 137//24 130//24 136//24
f 69//25 68//25 108//25
f 135//24 85//24 82//24
f 138//24 73//24 139//24
f 74//25 89//25 72//25
f 140//24 112//24 95//24
f 126//24 102//24 101//24
f 141//24 55//24 142//24
f 68//24 55//24 141//24
f 143//24 74//24 73//24
f 144//25 68//25 141//25
f 145//24 146//24 20//24
f 147//24 1//24 148//24
f 149//24 1//24 147//24
f 150//24 1//24 149//24
f 55//24 1//24 150//24
f 140//24 97//24 112//24
f 99//24 97//24 140//24
f 130//24 137//24 138//24
f 37//24 113//24 21//24
f 112//24 120//24 80//24
f 81//25 151//25 128//25
f 151//24 124//24 93//24
f 81//24 124//24 151//24
f 80//24 152//24 96//24
f 80//24 153//24 152//24
f 154//24 21//24 113//24
f 153//25 21//25 154//25
f 80//24 21//24 153//24
f 81//24 155//24 125//24
f 81//24 156//24 155//24
f 157//24 80//24 120//24
f 156//24 80//24 157//24
f 81//24 80//24 156//24
f 109//24 133//24 71//24
f 73//24 158//24 139//24
f 73//24 129//24 158//24
f 73//24 81//24 129//24
f 143//24 138//24 137//24
f 73//24 138//24 143//24
f 148//24 20//24 146//24
f 1//24 20//24 148//24
f 159//24 68//24 144//24
f 145//24 68//24 159//24
f 20//24 68//24 145//24
f 150//24 142//24 55//24
f 2//26 48//26 54//26
f 48//26 51//26 54//26
f 28//27 160//27 29//27
f 54//26 161//26 2//26
f 51//26 52//26 54//26
f 2//27 46//27 48//27
f 2//26 40//26 42//26
f 2//26 38//26 40//26
f 2//26 42//26 44//26
f 2//26 44//26 46//26
f 54//26 162//26 163//26
f 164//26 165//26 166//26
f 165//26 167//26 168//26
f 60//26 65//26 169//26
f 170//26 171//26 160//26
f 172//26 173//26 54//26
f 174//26 60//26 175//26
f 172//27 176//27 177//27
f 19//26 178//26 28//26
f 179//27 172//27 54//27
f 163//26 179//26 54//26
f 161//26 54//26 173//26
f 166//26 168//26 54//26
f 180//26 178//26 181//26
f 168//27 166//27 165//27
f 36//26 182//26 169//26
f 183//26 184//26 32//26
f 36//26 169//26 65//26
f 181//26 185//26 180//26
f 174//26 166//26 186//26
f 160//26 28//26 178//26
f 186//26 57//26 174//26
f 164//26 175//26 187//26
f 188//26 30//26 29//26
f 171//26 170//26 188//26
f 171//26 29//26 160//26
f 162//26 168//26 167//26
f 166//26 174//26 164//26
f 178//26 180//26 160//26
f 30//26 188//26 32//26
f 29//26 171//26 188//26
f 175//26 164//26 174//26
f 167//26 163//26 162//26
f 60//26 174//26 57//26
f 160//26 189//26 170//26
f 189//26 160//26 180//26
f 190//26 189//26 180//26
f 169//27 175//27 60//27
f 168//26 162//26 54//26
f 191//26 192//26 193//26
f 194//26 190//26 195//26
f 19//26 17//26 15//26
f 196//26 197//26 2//26
f 193//27 185//27 191//27
f 198//26 19//26 197//26
f 170//27 199//27 188//27
f 200//26 195//26 190//26
f 189//26 190//26 170//26
f 201//27 188//27 199//27
f 188//26 183//26 32//26
f 54//26 186//26 166//26
f 169//27 201//27 187//27
f 19//26 176//26 192//26
f 2//26 197//26 19//26
f 198//27 177//27 176//27
f 34//26 32//26 184//26
f 9//26 7//26 2//26
f 11//27 9//27 2//27
f 7//26 5//26 2//26
f 5//26 3//26 2//26
f 19//26 13//26 2//26
f 13//26 11//26 2//26
f 192//26 202//26 193//26
f 161//26 196//26 2//26
f 185//26 193//26 200//26
f 185//26 200//26 190//26
f 203//26 193//26 202//26
f 19//26 181//26 178//26
f 19//26 198//26 176//26
f 195//26 165//26 194//26
f 177//27 173//27 172//27
f 199//27 187//27 201//27
f 164//26 194//26 165//26
f 167//26 203//26 163//26
f 36//26 34//26 184//26
f 184//26 182//26 36//26
f 202//26 163//26 203//26
f 19//26 191//26 185//26
f 190//26 180//26 185//26
f 19//26 15//26 13//26
f 185//26 181//26 19//26
f 192//26 191//26 19//26
f 57//26 186//26 54//26
f 169//26 187//26 175//26
f 204//11 205//11 161//11
f 161//11 173//11 204//11
f 169//11 182//11 206//11
f 206//11 207//11 169//11
f 208//11 209//11 164//11
f 210//11 211//11 179//11
f 164//11 187//11 208//11
f 179//11 163//11 210//11
f 167//10 165//10 212//10
f 212//10 213//10 167//10
f 214//28 177//28 198//28
f 198//28 215//28 214//28
f 177//28 214//28 204//28
f 204//28 173//28 177//28
f 216//22 192//22 217//22
f 188//22 218//22 183//22
f 193//23 219//23 200//23
f 220//22 183//22 218//22
f 197//22 221//22 198//22
f 176//22 217//22 192//22
f 190//22 222//22 170//22
f 215//22 198//22 221//22
f 223//22 170//22 222//22
f 224//23 200//23 219//23
f 197//29 196//29 221//29
f 225//29 221//29 196//29
f 205//29 225//29 161//29
f 196//29 161//29 225//29
f 218//26 226//26 220//26
f 227//26 220//26 226//26
f 226//26 207//26 227//26
f 206//26 227//26 207//26
f 221//26 225//26 215//26
f 214//26 215//26 225//26
f 225//26 205//26 214//26
f 204//26 214//26 205//26
f 228//27 213//27 229//27
f 219//27 228//27 224//27
f 230//26 209//26 231//26
f 208//26 231//26 209//26
f 229//27 224//27 228//27
f 212//27 229//27 213//27
f 217//26 232//26 216//26
f 233//26 216//26 232//26
f 231//26 223//26 230//26
f 210//26 233//26 211//26
f 232//26 211//26 233//26
f 222//26 230//26 223//26
f 202//28 233//28 210//28
f 210//28 163//28 202//28
f 233//28 202//28 192//28
f 192//28 216//28 233//28
f 172//29 179//29 232//29
f 211//29 232//29 179//29
f 176//29 172//29 217//29
f 232//29 217//29 172//29
f 184//28 227//28 206//28
f 206//28 182//28 184//28
f 227//28 184//28 183//28
f 183//28 220//28 227//28
f 201//29 169//29 226//29
f 207//29 226//29 169//29
f 188//29 201//29 218//29
f 226//29 218//29 201//29
f 199//28 231//28 208//28
f 208//28 187//28 199//28
f 231//28 199//28 170//28
f 170//28 223//28 231//28
f 194//29 164//29 230//29
f 209//29 230//29 164//29
f 190//29 194//29 222//29
f 230//29 222//29 194//29
f 212//28 165//28 195//28
f 229//28 195//28 200//28
f 195//28 229//28 212//28
f 200//28 224//28 229//28
f 203//29 167//29 228//29
f 193//29 203//29 219//29
f 213//29 228//29 167//29
f 228//29 219//29 203//29
f 234//23 127//23 235//23
f 236//23 123//23 237//23
f 238//23 106//23 239//23
f 105//23 239//23 107//23
f 240//23 141//23 241//23
f 242//23 82//23 243//23
f 107//23 239//23 106//23
f 131//23 237//23 132//23
f 132//23 237//23 123//23
f 117//23 243//23 118//23
f 83//23 243//23 82//23
f 119//23 243//23 83//23
f 118//23 243//23 119//23
f 109//23 235//23 133//23
f 78//23 235//23 109//23
f 77//23 235//23 78//23
f 133//23 235//23 127//23
f 142//23 241//23 141//23
f 150//23 241//23 142//23
f 240//12 144//12 141//12
f 240//12 159//12 144//12
f 240//12 244//12 159//12
f 145//12 159//12 244//12
f 245//10 246//10 158//10
f 244//10 247//10 146//10
f 248//10 249//10 88//10
f 96//10 152//10 250//10
f 152//10 153//10 251//10
f 251//10 250//10 152//10
f 125//10 155//10 252//10
f 155//10 156//10 253//10
f 128//10 151//10 245//10
f 129//10 128//10 245//10
f 158//10 129//10 245//10
f 139//10 158//10 246//10
f 74//10 143//10 248//10
f 89//10 74//10 248//10
f 88//10 89//10 248//10
f 87//10 88//10 249//10
f 146//10 145//10 244//10
f 148//10 146//10 247//10
f 253//10 252//10 155//10
f 150//30 149//30 247//30
f 241//30 150//30 247//30
f 149//30 147//30 247//30
f 148//28 247//28 147//28
f 234//24 249//24 248//24
f 249//24 234//24 235//24
f 240//24 247//24 244//24
f 250//24 238//24 239//24
f 236//24 252//24 253//24
f 238//24 250//24 251//24
f 252//24 236//24 237//24
f 242//24 246//24 245//24
f 246//24 242//24 243//24
f 247//24 240//24 241//24
f 234//12 102//12 127//12
f 234//12 100//12 102//12
f 234//12 136//12 100//12
f 136//12 248//12 137//12
f 234//12 248//12 136//12
f 143//12 137//12 248//12
f 69//28 108//28 249//28
f 67//30 69//30 249//30
f 76//30 67//30 249//30
f 87//30 249//30 108//30
f 77//30 76//30 249//30
f 235//30 77//30 249//30
f 238//12 111//12 106//12
f 238//12 110//12 111//12
f 238//12 114//12 110//12
f 238//12 113//12 114//12
f 238//12 154//12 113//12
f 238//12 251//12 154//12
f 153//12 154//12 251//12
f 140//30 95//30 250//30
f 99//30 140//30 250//30
f 103//30 99//30 250//30
f 104//30 103//30 250//30
f 96//30 250//30 95//30
f 105//30 104//30 250//30
f 239//30 105//30 250//30
f 236//12 122//12 123//12
f 236//12 98//12 122//12
f 236//12 97//12 98//12
f 236//12 121//12 97//12
f 236//12 120//12 121//12
f 236//29 157//29 120//29
f 236//12 253//12 157//12
f 156//12 157//12 253//12
f 125//30 252//30 124//30
f 91//30 124//30 252//30
f 134//30 91//30 252//30
f 85//30 134//30 252//30
f 84//30 85//30 252//30
f 86//30 84//30 252//30
f 131//30 86//30 252//30
f 237//30 131//30 252//30
f 242//12 135//12 82//12
f 242//12 92//12 135//12
f 242//12 90//12 92//12
f 151//12 93//12 245//12
f 90//12 245//12 93//12
f 242//12 245//12 90//12
f 130//30 138//30 246//30
f 101//28 130//28 246//28
f 126//30 101//30 246//30
f 116//30 126//30 246//30
f 115//30 116//30 246//30
f 139//30 246//30 138//30
f 117//30 115//30 246//30
f 243//30 117//30 246//30
# Vertices: 253, normals: 30, texture coordinates: 0, faces: 502

