# File generated by ImageToStl.com - Free Image and 3D model conversion tools

o obj1
v 81.62200165 -18.91000175 7.99800014
v 81.62200165 -18.91000175 0
v 82.11800385 -19.68800163 0
v 82.11800385 -19.68800163 7.99800014
v 82.66400146 -20.37800026 0
v 82.66400146 -20.37800026 7.99800014
v 83.24200439 -20.98600006 0
v 83.24200439 -20.98600006 7.99800014
v 83.98600769 -21.63600159 0
v 83.98600769 -21.63600159 7.99800014
v 84.87000275 -22.26600075 0
v 84.87000275 -22.26600075 7.99800014
v 85.81400299 -22.80800056 0
v 85.81400299 -22.80800056 7.99800014
v 86.6700058 -23.20000076 0
v 86.6700058 -23.20000076 7.99800014
v 87.08000183 -23.35200119 0
v 87.08000183 -23.35200119 7.99800014
v 87.23000336 -23.40200043 0
v 87.23000336 -23.40200043 7.99800014
v 106.48600769 -23.40200043 7.99800014
v 100.06600189 -23.40200043 7.99800014
v 106.48600769 -23.40200043 6.00000048
v 93.64800262 -23.40200043 6.00000048
v 112.90400696 -23.40200043 7.99800014
v 100.06600189 -23.40200043 0
v 106.48600769 -23.40200043 0
v 106.48600769 -23.40200043 2
v 100.06600189 -23.40200043 4
v 93.64800262 -23.40200043 2
v 112.90400696 -23.40200043 0
v 93.64800262 -23.40200043 7.99800014
v 93.64800262 -23.40200043 0
v 112.90400696 -14.41800022 7.99800014
v 112.90400696 -18.91000175 0
v 112.90400696 -14.41800022 0
v 112.90400696 -18.91000175 7.99800014
v 82.11800385 -18.13199997 0
v 82.11800385 -18.13199997 7.99800014
v 82.66400146 -17.44200134 7.99800014
v 82.66400146 -17.44200134 0
v 83.24200439 -16.83200073 7.99800014
v 83.24200439 -16.83200073 0
v 83.98600769 -16.18200111 7.99800014
v 83.98600769 -16.18200111 0
v 84.87000275 -15.55400085 0
v 84.87000275 -15.55400085 7.99800014
v 85.81400299 -15.01200104 7.99800014
v 85.81400299 -15.01200104 0
v 86.6700058 -14.62000084 0
v 86.6700058 -14.62000084 7.99800014
v 87.08000183 -14.46600056 0
v 87.08000183 -14.46600056 7.99800014
v 87.23000336 -14.41800022 0
v 87.23000336 -14.41800022 7.99800014
v 100.06600189 -14.41800022 0
v 106.48600769 -14.41800022 2
v 106.48600769 -14.41800022 0
v 93.64800262 -14.41800022 0
v 93.64800262 -14.41800022 2
v 93.64800262 -14.41800022 6.00000048
v 106.48600769 -14.41800022 6.00000048
v 100.06600189 -14.41800022 4
v 106.48600769 -14.41800022 7.99800014
v 93.64800262 -14.41800022 7.99800014
v 100.06600189 -14.41800022 7.99800014
v 93.64800262 -22.27800179 7.99800014
v 106.48600769 -22.27800179 7.99800014
v 100.06600189 -21.15600014 7.99800014
v 95.90400696 -18.30200005 7.99800014
v 92.2460022 -16.66400146 7.99800014
v 95.90400696 -18.91000175 7.99800014
v 106.40400696 -17.57600021 7.99800014
v 100.06600189 -16.66400146 7.99800014
v 106.40400696 -17.77400017 7.99800014
v 106.40400696 -16.71000099 7.99800014
v 106.48600769 -16.71000099 7.99800014
v 106.48600769 -15.54200077 7.99800014
v 88.35800171 -21.11000061 7.99800014
v 86.30400085 -21.11000061 7.99800014
v 89.83800507 -21.11000061 7.99800014
v 89.83800507 -20.24200058 7.99800014
v 92.2460022 -21.15600014 7.99800014
v 89.83800507 -19.22600174 7.99800014
v 95.90400696 -20.1760006 7.99800014
v 95.90400696 -21.11000061 7.99800014
v 85.43800354 -18.91000175 7.99800014
v 85.43800354 -21.11000061 7.99800014
v 88.97000122 -16.71000099 7.99800014
v 88.35800171 -16.71000099 7.99800014
v 89.83800507 -16.71000099 7.99800014
v 93.64800262 -15.54200077 7.99800014
v 108.71200562 -16.71000099 7.99800014
v 110.80400848 -21.11000061 7.99800014
v 108.71200562 -21.11000061 7.99800014
v 110.80400848 -20.24200058 7.99800014
v 110.80400848 -20.01200104 7.99800014
v 95.90400696 -19.51800156 7.99800014
v 89.83800507 -18.91000175 7.99800014
v 89.83800507 -18.59400177 7.99800014
v 100.1680069 -21.11000061 7.99800014
v 100.01000214 -21.11000061 7.99800014
v 110.80400848 -18.54200172 7.99800014
v 110.80400848 -17.80800056 7.99800014
v 95.90400696 -17.57600021 7.99800014
v 95.90400696 -17.64400101 7.99800014
v 95.90400696 -16.71000099 7.99800014
v 99.43800354 -16.71000099 7.99800014
v 100.01000214 -16.71000099 7.99800014
v 100.1680069 -16.71000099 7.99800014
v 107.27200317 -21.11000061 7.99800014
v 106.48600769 -21.11000061 7.99800014
v 85.43800354 -17.57600021 7.99800014
v 85.43800354 -16.71000099 7.99800014
v 110.80400848 -19.27600098 7.99800014
v 110.80400848 -18.91000175 7.99800014
v 106.40400696 -17.85200119 7.99800014
v 105.08400726 -18.91000175 7.99800014
v 106.40400696 -18.91000175 7.99800014
v 110.80400848 -16.71000099 7.99800014
v 106.40400696 -19.96800041 7.99800014
v 106.40400696 -20.04600143 7.99800014
v 106.40400696 -21.11000061 7.99800014
v 109.93800354 -16.71000099 7.99800014
v 100.30400848 -20.24200058 7.99800014
v 100.30400848 -18.91000175 7.99800014
v 100.30400848 -21.04800034 7.99800014
v 100.30400848 -16.77000046 7.99800014
v 100.30400848 -16.71000099 7.99800014
v 100.30400848 -21.11000061 7.99800014
v 96.77200317 -21.11000061 7.99800014
v 93.9180069 -22.40600014 0
v 96.6680069 -22.40600014 0
v 95.60400391 -21.41000175 0
v 93.12600708 -14.91600037 0
v 99.02000427 -15.41400051 0
v 106.10400391 -16.40999985 0
v 106.75400543 -15.41400051 0
v 95.82800293 -15.91200066 0
v 90.13800049 -16.40999985 0
v 95.60400391 -16.40999985 0
v 101.52000427 -15.41400051 0
v 104.25400543 -15.41400051 0
v 105.13600159 -21.90800095 0
v 99.1680069 -22.40600014 0
v 100.60400391 -21.41000175 0
v 93.19800568 -22.90400124 0
v 106.10400391 -21.41000175 0
v 92.07800293 -15.91200066 0
v 107.21200562 -14.91600037 0
v 105.96200562 -14.91600037 0
v 85.13800049 -18.91000175 0
v 85.13800049 -21.41000175 0
v 105.58600616 -22.40600014 0
v 111.10400391 -21.41000175 0
v 111.10400391 -18.91000175 0
v 106.10400391 -18.91000175 0
v 100.60400391 -18.91000175 0
v 95.60400391 -18.91000175 0
v 90.13800049 -18.91000175 0
v 100.60400391 -16.40999985 0
v 111.10400391 -16.40999985 0
v 90.13800049 -21.41000175 0
v 85.13800049 -16.40999985 0
v 111.10400391 -16.40999985 5.39400005
v 90.13800049 -16.40999985 5.39400005
v 85.13800049 -16.40999985 5.39400005
v 106.10400391 -16.40999985 5.39400005
v 100.60400391 -16.40999985 5.39400005
v 95.60400391 -16.40999985 5.39400005
v 111.10400391 -18.91000175 5.39400005
v 111.10400391 -21.41000175 5.39400005
v 100.60400391 -21.41000175 5.39400005
v 95.60400391 -21.41000175 5.39400005
v 85.13800049 -21.41000175 5.39400005
v 106.10400391 -21.41000175 5.39400005
v 90.13800049 -21.41000175 5.39400005
v 106.10400391 -18.91000175 5.39400005
v 85.13800049 -18.91000175 5.39400005
v 90.13800049 -18.91000175 5.39400005
v 95.60400391 -18.91000175 5.39400005
v 100.60400391 -18.91000175 5.39400005
v 89.83800507 -16.71000099 13.62000084
v 85.43800354 -16.71000099 13.62000084
v 110.80400848 -16.71000099 13.62000084
v 106.40400696 -16.71000099 13.62000084
v 95.90400696 -16.71000099 13.62000084
v 100.30400848 -16.71000099 13.62000084
v 110.80400848 -21.11000061 13.62000084
v 106.40400696 -21.11000061 13.62000084
v 95.90400696 -21.11000061 13.62000084
v 100.30400848 -21.11000061 13.62000084
v 89.83800507 -21.11000061 13.62000084
v 85.43800354 -21.11000061 13.62000084
vn -0.84321 -0.53758 -0
vn -0.78418 -0.62053 -0
vn -0.72476 -0.689 -0
vn -0.65793 -0.75308 0
vn -0.58037 -0.81435 0
vn -0.49792 -0.86722 0
vn -0.41636 -0.9092 0
vn -0.34762 -0.93764 0
vn -0.31622 -0.94869 0
vn -0 -1 -0
vn -0 -1 0
vn 1 0 0
vn -0.84321 0.53758 0
vn -0.78418 0.62053 0
vn -0.72589 0.68781 0
vn -0.65793 0.75308 0
vn -0.57914 0.81522 0
vn -0.49792 0.86722 0
vn -0.41636 0.9092 0
vn -0.35163 0.93614 0
vn -0.30477 0.95242 0
vn 0 1 0
vn 0 1 0
vn 0 0 1
vn 0 0 1
vn 0 0 -1
vn 0 0 -1
vn -1 0 -0
vn 1 0 0
vn -1 0 0
f 1//1 2//1 3//1
f 3//1 4//1 1//1
f 4//2 3//2 5//2
f 5//2 6//2 4//2
f 6//3 5//3 7//3
f 7//3 8//3 6//3
f 7//4 9//4 8//4
f 10//4 8//4 9//4
f 9//5 11//5 10//5
f 12//5 10//5 11//5
f 11//6 13//6 12//6
f 14//6 12//6 13//6
f 13//7 15//7 14//7
f 16//7 14//7 15//7
f 15//8 17//8 16//8
f 18//8 16//8 17//8
f 17//9 19//9 18//9
f 20//9 18//9 19//9
f 21//10 22//10 23//10
f 19//10 24//10 20//10
f 25//11 21//11 23//11
f 26//10 27//10 28//10
f 29//10 30//10 26//10
f 27//10 31//10 28//10
f 30//10 29//10 24//10
f 25//10 23//10 28//10
f 19//10 30//10 24//10
f 22//11 32//11 24//11
f 25//10 28//10 31//10
f 32//11 20//11 24//11
f 22//10 24//10 29//10
f 19//10 33//10 30//10
f 26//10 28//10 29//10
f 23//10 29//10 28//10
f 29//10 23//10 22//10
f 33//10 26//10 30//10
f 34//12 35//12 36//12
f 31//12 35//12 25//12
f 35//12 34//12 37//12
f 37//12 25//12 35//12
f 2//13 1//13 38//13
f 39//13 38//13 1//13
f 40//14 41//14 39//14
f 38//14 39//14 41//14
f 42//15 43//15 40//15
f 41//15 40//15 43//15
f 44//16 45//16 42//16
f 43//16 42//16 45//16
f 45//17 44//17 46//17
f 47//17 46//17 44//17
f 48//18 49//18 47//18
f 46//18 47//18 49//18
f 49//19 48//19 50//19
f 51//19 50//19 48//19
f 50//20 51//20 52//20
f 53//20 52//20 51//20
f 52//21 53//21 54//21
f 55//21 54//21 53//21
f 56//22 57//22 58//22
f 59//22 60//22 56//22
f 54//22 55//22 61//22
f 62//22 36//22 57//22
f 62//22 57//22 63//22
f 58//22 57//22 36//22
f 34//23 62//23 64//23
f 65//23 61//23 55//23
f 56//22 63//22 57//22
f 63//22 66//22 62//22
f 64//22 62//22 66//22
f 66//23 61//23 65//23
f 63//22 56//22 60//22
f 60//22 61//22 63//22
f 54//22 60//22 59//22
f 66//22 63//22 61//22
f 34//22 36//22 62//22
f 54//22 61//22 60//22
f 67//24 20//24 32//24
f 22//24 68//24 69//24
f 20//24 16//24 18//24
f 70//24 71//24 72//24
f 73//24 74//24 75//24
f 76//24 74//24 73//24
f 77//24 74//24 76//24
f 78//24 74//24 77//24
f 79//25 80//25 20//25
f 20//24 81//24 79//24
f 82//24 83//24 84//24
f 81//24 83//24 82//24
f 20//24 83//24 81//24
f 85//24 67//24 86//24
f 51//25 55//25 53//25
f 20//24 67//24 83//24
f 48//24 55//24 51//24
f 87//24 1//24 88//24
f 20//24 1//24 14//24
f 89//24 55//24 90//24
f 91//24 55//24 89//24
f 71//24 55//24 91//24
f 64//24 66//24 78//24
f 92//24 66//24 65//24
f 21//24 25//24 68//24
f 20//25 14//25 16//25
f 78//24 34//24 64//24
f 77//24 93//24 78//24
f 68//24 94//24 95//24
f 96//24 25//24 97//24
f 94//24 25//24 96//24
f 68//24 25//24 94//24
f 37//24 97//24 25//24
f 68//24 22//24 21//24
f 92//24 55//24 71//24
f 65//24 55//24 92//24
f 69//24 67//24 22//24
f 14//24 1//24 12//24
f 12//24 1//24 10//24
f 98//24 99//24 83//24
f 72//24 99//24 98//24
f 10//24 1//24 8//24
f 1//24 42//24 40//24
f 8//25 1//25 6//25
f 99//24 71//24 100//24
f 99//24 72//24 71//24
f 1//24 48//24 47//24
f 1//25 55//25 48//25
f 1//25 47//25 44//25
f 6//24 1//24 4//24
f 1//24 40//24 39//24
f 1//24 44//24 42//24
f 101//24 102//24 69//24
f 74//25 78//25 66//25
f 32//24 22//24 67//24
f 66//24 92//24 74//24
f 103//24 37//24 104//24
f 105//24 92//24 106//24
f 107//24 92//24 105//24
f 108//24 92//24 107//24
f 109//24 92//24 108//24
f 74//24 92//24 109//24
f 109//24 110//24 74//24
f 68//24 111//24 112//24
f 68//24 95//24 111//24
f 113//24 1//24 87//24
f 114//24 1//24 113//24
f 55//24 1//24 114//24
f 115//25 37//25 116//25
f 117//24 118//24 119//24
f 116//24 37//24 103//24
f 104//25 37//25 120//25
f 121//24 118//24 122//24
f 119//24 118//24 121//24
f 112//24 123//24 68//24
f 124//24 78//24 93//24
f 120//24 78//24 124//24
f 34//24 120//24 37//24
f 34//24 78//24 120//24
f 97//24 37//24 115//24
f 125//25 118//25 126//25
f 127//24 118//24 125//24
f 126//25 118//25 128//25
f 128//24 118//24 129//24
f 106//24 92//24 70//24
f 129//24 74//24 110//24
f 117//24 129//24 118//24
f 117//24 74//24 129//24
f 75//25 74//25 117//25
f 85//25 83//25 67//25
f 98//24 83//24 85//24
f 100//24 71//24 91//24
f 84//24 83//24 99//24
f 71//24 70//24 92//24
f 122//24 69//24 123//24
f 69//24 130//24 101//24
f 130//24 118//24 127//24
f 130//24 122//24 118//24
f 69//24 122//24 130//24
f 67//24 131//24 86//24
f 67//25 102//25 131//25
f 67//24 69//24 102//24
f 88//24 20//24 80//24
f 1//24 20//24 88//24
f 69//24 68//24 123//24
f 114//25 90//25 55//25
f 2//26 38//26 41//26
f 19//26 132//26 133//26
f 2//27 49//27 54//27
f 50//27 52//27 54//27
f 134//26 132//26 19//26
f 49//26 50//26 54//26
f 135//26 59//26 136//26
f 2//27 45//27 46//27
f 2//26 41//26 43//26
f 137//26 138//26 36//26
f 136//26 139//26 140//26
f 141//26 142//26 143//26
f 144//27 26//27 145//27
f 132//26 134//26 146//26
f 145//26 33//26 147//26
f 19//26 147//26 33//26
f 2//26 43//26 45//26
f 2//26 46//26 49//26
f 139//26 136//26 142//26
f 148//26 145//26 133//26
f 140//26 149//26 136//26
f 149//26 135//26 136//26
f 150//26 143//26 142//26
f 142//26 151//26 150//26
f 147//27 133//27 145//27
f 152//26 153//26 2//26
f 26//26 154//26 27//26
f 148//26 144//26 145//26
f 155//26 156//26 31//26
f 133//26 146//26 148//26
f 157//27 148//27 158//27
f 26//27 144//27 154//27
f 139//26 141//26 140//26
f 135//26 149//26 54//26
f 159//26 134//26 160//26
f 133//26 147//26 19//26
f 33//26 145//26 26//26
f 151//26 142//26 136//26
f 138//26 137//26 161//26
f 136//26 56//26 151//26
f 141//26 139//26 142//26
f 36//26 162//26 137//26
f 19//26 13//26 2//26
f 155//26 27//26 154//26
f 35//26 31//26 156//26
f 27//26 155//26 31//26
f 151//26 58//26 36//26
f 163//26 160//26 134//26
f 143//26 150//26 36//26
f 2//27 153//27 19//27
f 161//26 143//26 138//26
f 19//26 163//26 134//26
f 163//27 19//27 153//27
f 149//26 140//26 164//26
f 54//26 164//26 2//26
f 9//26 7//26 2//26
f 11//26 9//26 2//26
f 7//27 5//27 2//27
f 5//26 3//26 2//26
f 146//27 158//27 148//27
f 137//26 157//26 161//26
f 13//26 11//26 2//26
f 36//26 138//26 143//26
f 164//26 54//26 149//26
f 164//26 152//26 2//26
f 141//27 159//27 140//27
f 158//26 161//26 157//26
f 36//26 150//26 151//26
f 143//27 161//27 141//27
f 19//26 17//26 15//26
f 56//26 136//26 59//26
f 160//27 140//27 159//27
f 146//26 133//26 132//26
f 36//26 35//26 162//26
f 19//27 15//27 13//27
f 156//26 162//26 35//26
f 59//26 135//26 54//26
f 58//26 151//26 56//26
f 144//26 148//26 155//26
f 155//26 154//26 144//26
f 137//11 162//11 165//11
f 166//11 167//11 164//11
f 165//11 168//11 137//11
f 141//11 161//11 169//11
f 169//11 170//11 141//11
f 164//11 140//11 166//11
f 171//28 156//28 155//28
f 155//28 172//28 171//28
f 156//28 171//28 165//28
f 165//28 162//28 156//28
f 173//23 146//23 174//23
f 153//23 175//23 163//23
f 148//23 176//23 155//23
f 134//23 174//23 146//23
f 172//23 155//23 176//23
f 177//23 163//23 175//23
f 148//29 157//29 176//29
f 178//29 176//29 157//29
f 168//29 178//29 137//29
f 157//29 137//29 178//29
f 179//26 167//26 180//26
f 175//26 179//26 177//26
f 174//26 181//26 173//26
f 182//26 173//26 181//26
f 180//26 177//26 179//26
f 166//26 180//26 167//26
f 165//26 171//26 168//26
f 171//26 172//26 178//26
f 176//26 178//26 172//26
f 169//26 182//26 170//26
f 181//26 170//26 182//26
f 178//26 168//26 171//26
f 182//28 158//28 146//28
f 146//28 173//28 182//28
f 158//28 182//28 169//28
f 169//28 161//28 158//28
f 134//29 159//29 174//29
f 181//29 174//29 159//29
f 170//29 181//29 141//29
f 159//29 141//29 181//29
f 163//28 177//28 180//28
f 180//28 160//28 163//28
f 160//28 180//28 166//28
f 166//28 140//28 160//28
f 153//29 152//29 175//29
f 179//29 175//29 152//29
f 167//29 179//29 164//29
f 152//29 164//29 179//29
f 183//22 91//22 184//22
f 185//22 120//22 186//22
f 124//22 186//22 120//22
f 93//23 186//23 124//23
f 77//23 186//23 93//23
f 76//22 186//22 77//22
f 107//22 187//22 108//22
f 110//22 187//22 129//22
f 109//22 187//22 110//22
f 108//23 187//23 109//23
f 89//22 184//22 91//22
f 90//22 184//22 89//22
f 114//22 184//22 90//22
f 188//22 129//22 187//22
f 185//29 104//29 120//29
f 185//12 103//12 104//12
f 185//12 116//12 103//12
f 185//12 115//12 116//12
f 185//12 97//12 115//12
f 185//29 96//29 97//29
f 94//12 96//12 189//12
f 185//12 189//12 96//12
f 189//10 190//10 111//10
f 112//11 111//11 190//11
f 123//10 112//10 190//10
f 95//10 94//10 189//10
f 111//10 95//10 189//10
f 86//10 131//10 191//10
f 101//10 130//10 192//10
f 102//10 101//10 192//10
f 131//10 102//10 192//10
f 192//10 191//10 131//10
f 79//10 81//10 193//10
f 80//10 79//10 193//10
f 88//11 80//11 194//11
f 193//10 194//10 80//10
f 121//30 122//30 190//30
f 119//30 121//30 190//30
f 117//30 119//30 190//30
f 75//30 117//30 190//30
f 73//28 75//28 190//28
f 123//30 190//30 122//30
f 76//30 73//30 190//30
f 186//30 76//30 190//30
f 183//24 194//24 193//24
f 185//24 190//24 189//24
f 190//24 185//24 186//24
f 188//24 191//24 192//24
f 191//24 188//24 187//24
f 194//24 183//24 184//24
f 188//12 128//12 129//12
f 188//12 126//12 128//12
f 188//12 125//12 126//12
f 130//12 127//12 192//12
f 125//12 192//12 127//12
f 188//12 192//12 125//12
f 86//30 191//30 85//30
f 98//30 85//30 191//30
f 72//30 98//30 191//30
f 70//28 72//28 191//28
f 106//30 70//30 191//30
f 105//30 106//30 191//30
f 107//30 105//30 191//30
f 187//30 107//30 191//30
f 183//12 100//12 91//12
f 183//29 99//29 100//29
f 183//29 84//29 99//29
f 183//12 82//12 84//12
f 183//12 193//12 82//12
f 81//12 82//12 193//12
f 88//30 194//30 87//30
f 113//30 87//30 194//30
f 114//30 113//30 194//30
f 184//30 114//30 194//30
# Vertices: 194, normals: 30, texture coordinates: 0, faces: 384

